<svg viewBox="0 0 270 311" xmlns="http://www.w3.org/2000/svg"><path d="M91.3 239.46c-18.825-.516-21.494-.804-25.777-2.782-6.683-3.086-16.016-12.285-18.874-18.603-2.129-4.706-2.348-6.59-2.348-20.19v-15l-7.21-.645c-8.145-.728-12.13-2.724-17.659-8.842-5.27-5.833-8.187-12.37-10.647-23.858-1.877-8.768-2.132-12.429-1.736-24.966.613-19.378 3.246-29.46 12.8-48.997 6.856-14.02 7.437-14.845 18.266-25.952C50.648 36.771 57.448 31.188 66.87 26.011 96.054 9.978 140.51 4.884 175.8 13.527c32.92 8.064 62.048 33.078 76.442 65.65 7.68 17.373 9.712 24.571 10.521 37.247 1.321 20.695-1.158 38.346-7.032 50.06-6.145 12.254-12.678 16.855-25.261 17.791l-8.17.608-.542 15c-.473 13.06-.848 15.626-2.903 19.84-3.114 6.387-10.437 13.781-17.145 17.312l-5.41 2.848-42 .076c-23.1.041-51.45-.184-63-.5zm109.12-8.278c6.734-3.552 12.989-10.75 14.882-17.125 1.054-3.55 1.495-9.741 1.495-20.983v-15.948l6.044.684c15.298 1.73 24.653-3.983 30.024-18.338 4.503-12.035 6.453-30.178 4.773-44.415-1.29-10.962-4.98-22.046-12.38-37.17-10.4-21.28-21.46-33.408-42.57-46.711-17.366-10.942-36.965-15.886-62.984-15.886-34.962 0-63.937 9.046-86.35 26.959-7.15 5.714-20.646 21.34-24.84 28.763-11.018 19.497-15.68 36.258-15.782 56.734-.121 24.402 6.26 40.516 18.57 46.888 3.725 1.928 10.425 2.54 17 1.554 1.935-.29 2 .266 2 17.2 0 14.692.288 18.142 1.797 21.5 2.403 5.35 9.07 12.068 15.203 15.32 4.884 2.592 5.544 2.667 28.5 3.246 12.925.326 40.6.557 61.5.513l38-.079 5.123-2.703zm-92.622-7.797c-32.394-.499-32.514-.509-36.911-3-2.426-1.375-5.801-4.23-7.5-6.345l-3.09-3.845v-53.988l2.382-1.927c2.278-1.844 3.886-1.906 37-1.413 19.04.284 50.325.743 69.52 1.021 23.555.342 35.342.87 36.25 1.624 1.065.884 1.346 6.387 1.338 26.246-.009 24.311-.086 25.293-2.374 30.206-2.84 6.1-6.176 8.91-13.003 10.96-5.41 1.624-7.361 1.635-83.612.461zm46.443-48.223c2.523-3.603 2.058-12.083-.849-15.462-2.377-2.764-2.43-2.775-4.504-.897-4.135 3.742-4.666 12.773-1.01 17.179 1.722 2.075 4.595 1.705 6.363-.82zm-29.892-2.246c2.927-7.006.709-15.532-4.042-15.532-3.23 0-4.898 3.235-4.898 9.5 0 6.326 1.662 9.5 4.975 9.5 1.926 0 2.856-.813 3.965-3.468zm-17.718-30.352c-2.5-1.018-5.508-5.27-9.106-12.867-2.974-6.278-3.225-7.597-3.206-16.813.02-9.311.255-10.482 3.42-17 8.541-17.588 27.391-27.905 45.359-24.827 14.026 2.403 26.376 11.75 32.778 24.806 3.25 6.629 3.42 7.507 3.38 17.5-.037 9.175-.373 11.225-2.626 16.021-1.42 3.025-3.992 7.413-5.714 9.75l-3.13 4.25-29.745-.07c-16.359-.039-30.494-.376-31.41-.75zm120.5-21.967c-10.056-3.599-18.295-12.457-20.466-22.005-1.562-6.868.017-15.867 3.88-22.116 3.075-4.973 10.372-11.092 13.229-11.092 2.381 0 11.79 14.481 16.037 24.685 1.754 4.212 4.376 12.295 5.827 17.962 3.198 12.483 2.878 13.128-6.895 13.904-4.771.379-7.786.032-11.612-1.338zM29.8 115.12c-4.077-1.113-4.53-1.543-4.82-4.572-.403-4.2 3.831-17.477 8.5-26.657 4.061-7.984 12.2-20.099 15.73-23.416 2.254-2.117 2.55-2.155 5.387-.689 4.003 2.07 9.97 9.05 12.488 14.605 3.11 6.864 2.835 17.19-.648 24.31-6.518 13.321-22.218 20.357-36.637 16.42zm146.97-65.979c-3.26-1.643-5.069-3.452-6.712-6.712-2.639-5.233-3.01-11.81-.714-12.69 3.445-1.322 28.69 9.91 29.297 13.034.444 2.289-1.406 4.36-5.976 6.691-4.99 2.546-10.425 2.436-15.895-.323zm-86.694-.994c-4.391-.898-10.273-5.689-10.273-8.368 0-2.994 28.388-12.288 30.679-10.043 1.485 1.455.288 8.53-2.047 12.094-3.215 4.906-11.432 7.733-18.36 6.317z" fill="#e8ecea"/><path d="M220.187 165.48c-2.75-1.676-3.172-2.545-3.57-7.338-.531-6.414-3.262-10.79-8.193-13.13-2.652-1.258-6.579-1.623-17.461-1.623-7.722 0-14.26-.356-14.528-.79-.27-.435.904-3.023 2.607-5.75 4.325-6.93 5.788-12.532 5.994-22.957.21-10.967-2.23-19.13-8.53-28.536-16.08-24.009-49.9-27.87-71.8-8.199-11.655 10.468-16.42 22.232-15.751 38.888.356 8.885.766 10.644 4.12 17.707 2.048 4.314 3.724 8.02 3.724 8.239 0 .218-7.897.396-17.55.396-18.8 0-20.7.402-25.337 5.365-1.652 1.768-2.729 4.643-3.5 9.344-1.102 6.724-1.153 6.803-5.113 8.11-8 2.64-14.402-1.595-18.346-12.136-3.261-8.716-5.398-29.18-3.379-32.354.563-.885 2.337-.8 7.235.343 16.187 3.778 33.122-4.337 40.63-19.471 2.502-5.043 2.83-6.8 2.844-15.223.014-8.756-.248-10.057-3.265-16.185-2.077-4.22-5.104-8.302-8.25-11.131-2.733-2.457-4.97-4.926-4.97-5.485 0-1.125 13.411-11.177 14.912-11.177.519 0 2.267 1.607 3.886 3.57 8.158 9.897 22.407 11.083 32.222 2.681 5.141-4.4 6.16-6.338 7.492-14.233l1.093-6.481 4.448-.826c6.98-1.295 37.475-.348 39.369 1.223 1.072.89 1.578 2.999 1.578 6.574 0 7.509 4.097 15.038 10.253 18.844 8.804 5.443 19.24 4.488 27.161-2.486 2.417-2.127 4.848-3.867 5.403-3.867 1.58 0 13.184 10.03 13.184 11.394 0 .672-2.006 2.635-4.457 4.362-9.868 6.956-13.994 16.403-13.372 30.621.36 8.227.767 9.838 3.95 15.646 4.312 7.872 11.71 14.254 19.044 16.432 3.061.91 9.028 1.544 14.516 1.544h9.319l-.007 5.25c-.01 7.266-3.467 20.996-6.658 26.44-1.461 2.494-4.047 5.382-5.746 6.418-4.042 2.465-11.15 2.456-15.207-.018z" fill="#28c120"/><path d="M95.8 233.45c-22.955-.579-23.615-.654-28.5-3.245-6.132-3.253-12.798-9.971-15.202-15.321-1.51-3.358-1.798-6.808-1.798-21.5 0-16.933-.064-17.49-2-17.2-10.686 1.604-18.086-.53-24.142-6.963-11.723-12.45-15.11-44.958-7.452-71.522 1.468-5.092 8.191-20.287 11.807-26.687 4.195-7.422 17.69-23.048 24.84-28.763 22.413-17.913 51.388-26.959 86.35-26.959 26.02 0 45.618 4.943 62.984 15.886C223.8 44.48 234.854 56.608 245.26 77.887c7.397 15.124 11.088 26.208 12.382 37.172 1.68 14.237-.27 32.381-4.773 44.415-5.37 14.355-14.726 20.07-30.024 18.338l-6.044-.684v15.948c0 11.242-.441 17.433-1.495 20.983-1.893 6.376-8.148 13.573-14.881 17.125l-5.124 2.703-38 .08c-20.9.043-48.575-.188-61.5-.514zm95.613-10.527c6.828-2.05 10.163-4.86 13.003-10.96 2.288-4.914 2.365-5.895 2.374-30.206.008-19.859-.272-25.362-1.337-26.246-.91-.755-12.696-1.282-36.25-1.624-19.197-.278-50.481-.737-69.521-1.02-33.114-.494-34.722-.433-37 1.411l-2.382 1.928v53.988l3.09 3.845c1.699 2.114 5.074 4.97 7.5 6.344 4.396 2.492 4.517 2.502 36.91 3 76.253 1.174 78.204 1.163 83.613-.46zm-43.54-46.94c-3.656-4.405-3.125-13.437 1.01-17.179 2.074-1.877 2.126-1.867 4.504.897 4.409 5.125 2.613 17.685-2.529 17.685-1.002 0-2.345-.631-2.985-1.403zm-31.24-1.847c-.677-1.237-1.23-4.5-1.23-7.25 0-6.265 1.668-9.5 4.899-9.5 4.75 0 6.968 8.526 4.041 15.532-1.76 4.212-5.731 4.839-7.71 1.218zm118.75-8.641c1.699-1.036 4.285-3.924 5.746-6.418 3.19-5.445 6.648-19.175 6.658-26.44l.007-5.25h-9.319c-5.488 0-11.455-.635-14.516-1.544-7.335-2.178-14.732-8.56-19.045-16.432-3.182-5.809-3.59-7.42-3.949-15.646-.622-14.218 3.504-23.666 13.372-30.62 2.451-1.728 4.457-3.692 4.457-4.363 0-1.365-11.604-11.394-13.184-11.394-.555 0-2.986 1.74-5.403 3.867-7.922 6.973-18.358 7.928-27.16 2.486-6.157-3.806-10.254-11.335-10.254-18.844 0-3.575-.506-5.684-1.578-6.574-1.894-1.571-32.388-2.519-39.37-1.223l-4.447.826-1.093 6.481c-1.331 7.894-2.35 9.832-7.492 14.233-9.816 8.402-24.064 7.216-32.222-2.681-1.619-1.964-3.367-3.57-3.886-3.57-1.5 0-14.912 10.053-14.912 11.177 0 .56 2.237 3.027 4.97 5.485 3.146 2.829 6.173 6.912 8.25 11.13 3.017 6.128 3.279 7.43 3.265 16.186-.014 8.423-.342 10.179-2.844 15.223-7.508 15.134-24.443 23.249-40.63 19.47-4.898-1.143-6.672-1.227-7.235-.343-2.02 3.175.118 23.638 3.379 32.354 3.944 10.542 10.347 14.777 18.346 12.137 3.96-1.307 4.01-1.387 5.113-8.11.771-4.7 1.848-7.576 3.5-9.345 4.636-4.962 6.536-5.364 25.337-5.364 9.653 0 17.55-.179 17.55-.396 0-.218-1.676-3.926-3.724-8.239-3.354-7.063-3.764-8.822-4.12-17.707-.486-12.086 1.447-20.189 6.783-28.437 10.14-15.674 27.509-24.356 45.719-22.853 19.026 1.57 35.079 14.531 41.509 33.515 1.752 5.171 2.203 8.586 2.064 15.621-.206 10.425-1.669 16.026-5.994 22.956-1.703 2.728-2.876 5.315-2.607 5.75.268.435 6.806.79 14.528.79 10.882 0 14.809.366 17.46 1.624 4.932 2.34 7.663 6.716 8.195 13.13.397 4.792.82 5.661 3.569 7.338 4.057 2.474 11.166 2.482 15.207.018zm-64.471-26.359c1.722-2.337 4.293-6.725 5.714-9.75 2.253-4.796 2.589-6.846 2.625-16.021.04-9.993-.13-10.871-3.38-17.5-6.402-13.057-18.752-22.404-32.778-24.806-17.968-3.078-36.817 7.24-45.359 24.827-3.165 6.518-3.4 7.688-3.42 17-.019 9.216.233 10.534 3.206 16.813 3.599 7.597 6.607 11.848 9.106 12.867.917.374 15.052.711 31.411.75l29.744.07 3.131-4.25zm75.816-19.256c1.393-1.393 1.285-2.557-1.095-11.848-1.451-5.667-4.074-13.749-5.827-17.962-4.248-10.203-13.656-24.685-16.037-24.685-2.857 0-10.154 6.118-13.23 11.092-10.158 16.431-2.288 37.366 16.587 44.12 6.147 2.2 17.085 1.799 19.602-.718zm-195.75-6.244c6.456-2.856 12.314-8.516 15.453-14.933 3.483-7.12 3.759-17.446.648-24.31-2.517-5.556-8.485-12.535-12.488-14.605-2.836-1.467-3.133-1.429-5.387.689-3.53 3.317-11.669 15.43-15.73 23.416-4.669 9.18-8.903 22.457-8.5 26.657.29 3.028.743 3.458 4.82 4.572 6.047 1.652 15.606.981 21.184-1.486zm141.67-64.17c4.57-2.332 6.42-4.403 5.975-6.691-.606-3.124-25.852-14.356-29.297-13.034-2.294.88-1.924 7.457.714 12.69 4.009 7.949 14.447 11.198 22.607 7.035zm-89.116-3.435c4.035-2.091 6.312-5.486 7.33-10.929 1.241-6.633.106-6.995-11.57-3.689-12.715 3.6-19.5 6.512-19.5 8.367 0 2.68 5.88 7.47 10.272 8.368 4.756.972 8.705.352 13.468-2.117zM104.279 246.72a3.883 3.883 0 00-2.969 1.875c-3.032 5.05-7.188 6.864-12.844 7.781a3.883 3.883 0 00-3.25 3.844l.031 8.25a3.883 3.883 0 003.875 3.875h1.125l-.031 6.812-4.563.594a3.883 3.883 0 00-3.375 3.844l-.03 7.813a3.883 3.883 0 003.874 3.875l40.906.093a3.883 3.883 0 003.875-3.875v-.562c.285.109.56.29.844.375 3.498 1.05 7.218.887 11.53.843 4.272-.042 7.808.122 11.189-.937.442-.138.871-.388 1.312-.594a3.883 3.883 0 003.157 1.563l10.938-.063a3.883 3.883 0 003.843-3.875v-1.031h2.188c3.04-.015 6.33-.664 8.687-3.156s3.157-6.002 3.157-10.281c0-4.3-.837-7.82-3.22-10.281-2.374-2.452-5.676-3.071-8.655-3.063h-16.938a3.883 3.883 0 00-1 .125 3.883 3.883 0 00-.03 0 3.883 3.883 0 00-1-.125h-13.063a3.883 3.883 0 00-.969.125 3.883 3.883 0 00-.03 0 3.883 3.883 0 00-1-.125h-12.939a3.883 3.883 0 00-3.875 3.875v15.125l-1.125-.156-.062-28.688a3.883 3.883 0 00-3.875-3.875h-15.312a3.883 3.883 0 00-.375 0z"/><path d="M104.66 250.59c-3.689 6.144-9.289 8.608-15.562 9.625l.031 8.25h5l-.031 14.094-7.937 1.031-.032 7.813 40.906.093v-7.875l-7-.937-.062-32.094H104.66zm24.25 13.719v17.969c0 6.054 5.744 6.086 14.344 6 8.6-.086 13.656.052 13.656-6v-17.969h-13.062l.031 14.062c.003.992-.421.938-1 .938-.578 0-.998-.038-1-.875l-.031-14.125H128.91zm30.031 0l-.031 24 10.938-.063v-4.874l6.031-.032c5.08-.024 8-2.004 8-9.562s-3.039-9.49-8-9.469zm11.75 7.969h2.063c.353 0 .625.272.625.625v3.937a.615.615 0 01-.625.625h-2.063a.615.615 0 01-.625-.625v-3.937c0-.353.272-.625.625-.625z" fill="#fff"/></svg>