<?xml version="1.0" standalone="no"?>
<!DOCTYPE svg PUBLIC "-//W3C//DTD SVG 20010904//EN"
 "http://www.w3.org/TR/2001/REC-SVG-20010904/DTD/svg10.dtd">
<svg version="1.0" xmlns="http://www.w3.org/2000/svg"
 width="300.000000pt" height="256.000000pt" viewBox="0 0 300.000000 256.000000"
 preserveAspectRatio="xMidYMid meet">
<metadata>
Created by potrace 1.10, written by Peter Selinger 2001-2011
</metadata>
<g transform="translate(0.000000,256.000000) scale(0.100000,-0.100000)"
fill="#000000" stroke="none">
<path d="M947 1610 c-89 -23 -164 -84 -208 -170 -34 -67 -39 -204 -10 -281 27
-72 75 -127 142 -164 45 -24 69 -30 141 -33 86 -4 106 1 210 56 3 2 8 -7 10
-18 3 -21 9 -22 88 -22 l85 0 3 311 2 311 -85 0 c-81 0 -85 -1 -91 -24 l-6
-24 -58 30 c-64 33 -156 45 -223 28z m215 -67 l57 -25 35 22 c23 13 47 20 68
18 l33 -3 0 -265 0 -265 -39 -3 c-23 -2 -52 3 -70 13 -30 17 -34 16 -96 -10
-56 -24 -75 -27 -140 -23 -107 7 -188 56 -232 142 -27 51 -36 185 -18 242 53
164 232 234 402 157z"/>
<path d="M983 1450 c-114 -58 -134 -214 -37 -299 91 -80 224 -50 275 64 24 53
24 95 -3 151 -41 89 -149 127 -235 84z m140 -35 c46 -22 70 -61 75 -119 7 -85
-52 -149 -138 -149 -75 0 -129 49 -137 126 -11 109 102 190 200 142z"/>
<path d="M1530 1055 l0 -80 350 0 350 0 0 80 0 80 -350 0 -350 0 0 -80z m657
38 c20 -8 16 -56 -6 -70 -14 -9 -95 -11 -308 -9 -158 2 -294 4 -300 5 -8 1
-13 15 -13 35 0 19 6 37 13 40 16 6 596 6 614 -1z"/>
</g>
</svg>
